<svg xmlns="http://www.w3.org/2000/svg" viewBox="0 0 794 192" width="794" height="192">
<defs>
  <linearGradient id="purpleG" x1="0" y1="0" x2="1" y2="0">
    <stop offset="0%" stop-color="#a855f7"/>
    <stop offset="50%" stop-color="#c084fc"/>
    <stop offset="100%" stop-color="#e9d5ff"/>
  </linearGradient>
</defs>

<rect x="40.0" y="68.0" width="14" height="14" rx="1" fill="#e2e8f0" fill-opacity="0.85"/>
<rect x="40.0" y="82.0" width="14" height="14" rx="1" fill="#e2e8f0" fill-opacity="0.85"/>
<rect x="54.0" y="68.0" width="14" height="14" rx="1" fill="#e2e8f0" fill-opacity="0.85"/>
<rect x="68.0" y="68.0" width="14" height="14" rx="1" fill="#e2e8f0" fill-opacity="0.85"/>
<rect x="82.0" y="68.0" width="14" height="14" rx="1" fill="#e2e8f0" fill-opacity="0.85"/>
<rect x="82.0" y="82.0" width="14" height="14" rx="1" fill="#e2e8f0" fill-opacity="0.85"/>
<rect x="110.0" y="68.0" width="14" height="14" rx="1" fill="#e2e8f0" fill-opacity="0.85"/>
<rect x="110.0" y="82.0" width="14" height="14" rx="1" fill="#e2e8f0" fill-opacity="0.85"/>
<rect x="124.0" y="68.0" width="14" height="14" rx="1" fill="#e2e8f0" fill-opacity="0.85"/>
<rect x="138.0" y="68.0" width="14" height="14" rx="1" fill="#e2e8f0" fill-opacity="0.85"/>
<rect x="152.0" y="68.0" width="14" height="14" rx="1" fill="#e2e8f0" fill-opacity="0.85"/>
<rect x="152.0" y="82.0" width="14" height="14" rx="1" fill="#e2e8f0" fill-opacity="0.85"/>
<rect x="180.0" y="68.0" width="14" height="14" rx="1" fill="#e2e8f0" fill-opacity="0.85"/>
<rect x="180.0" y="82.0" width="14" height="14" rx="1" fill="#e2e8f0" fill-opacity="0.85"/>
<rect x="194.0" y="68.0" width="14" height="14" rx="1" fill="#e2e8f0" fill-opacity="0.85"/>
<rect x="208.0" y="68.0" width="14" height="14" rx="1" fill="#e2e8f0" fill-opacity="0.85"/>
<rect x="222.0" y="68.0" width="14" height="14" rx="1" fill="#e2e8f0" fill-opacity="0.85"/>
<rect x="222.0" y="82.0" width="14" height="14" rx="1" fill="#e2e8f0" fill-opacity="0.85"/>
<rect x="250.0" y="68.0" width="14" height="14" rx="1" fill="#e2e8f0" fill-opacity="0.85"/>
<rect x="250.0" y="82.0" width="14" height="14" rx="1" fill="#e2e8f0" fill-opacity="0.85"/>
<rect x="264.0" y="68.0" width="14" height="14" rx="1" fill="#e2e8f0" fill-opacity="0.85"/>
<rect x="278.0" y="68.0" width="14" height="14" rx="1" fill="#e2e8f0" fill-opacity="0.85"/>
<rect x="292.0" y="82.0" width="14" height="14" rx="1" fill="#e2e8f0" fill-opacity="0.85"/>
<rect x="40.0" y="96.0" width="14" height="14" rx="1" fill="#e2e8f0" fill-opacity="0.85"/>
<rect x="40.0" y="110.0" width="14" height="14" rx="1" fill="#e2e8f0" fill-opacity="0.85"/>
<rect x="82.0" y="96.0" width="14" height="14" rx="1" fill="#e2e8f0" fill-opacity="0.85"/>
<rect x="82.0" y="110.0" width="14" height="14" rx="1" fill="#e2e8f0" fill-opacity="0.85"/>
<rect x="110.0" y="96.0" width="14" height="14" rx="1" fill="#e2e8f0" fill-opacity="0.85"/>
<rect x="110.0" y="110.0" width="14" height="14" rx="1" fill="#e2e8f0" fill-opacity="0.85"/>
<rect x="152.0" y="96.0" width="14" height="14" rx="1" fill="#e2e8f0" fill-opacity="0.85"/>
<rect x="152.0" y="110.0" width="14" height="14" rx="1" fill="#e2e8f0" fill-opacity="0.85"/>
<rect x="180.0" y="96.0" width="14" height="14" rx="1" fill="#e2e8f0" fill-opacity="0.85"/>
<rect x="180.0" y="110.0" width="14" height="14" rx="1" fill="#e2e8f0" fill-opacity="0.85"/>
<rect x="194.0" y="96.0" width="14" height="14" rx="1" fill="#e2e8f0" fill-opacity="0.85"/>
<rect x="208.0" y="96.0" width="14" height="14" rx="1" fill="#e2e8f0" fill-opacity="0.85"/>
<rect x="222.0" y="96.0" width="14" height="14" rx="1" fill="#e2e8f0" fill-opacity="0.85"/>
<rect x="250.0" y="96.0" width="14" height="14" rx="1" fill="#e2e8f0" fill-opacity="0.85"/>
<rect x="250.0" y="110.0" width="14" height="14" rx="1" fill="#e2e8f0" fill-opacity="0.85"/>
<rect x="292.0" y="96.0" width="14" height="14" rx="1" fill="#e2e8f0" fill-opacity="0.85"/>
<rect x="292.0" y="110.0" width="14" height="14" rx="1" fill="#e2e8f0" fill-opacity="0.85"/>
<rect x="40.0" y="124.0" width="14" height="14" rx="1" fill="#e2e8f0" fill-opacity="0.85"/>
<rect x="54.0" y="124.0" width="14" height="14" rx="1" fill="#e2e8f0" fill-opacity="0.85"/>
<rect x="68.0" y="124.0" width="14" height="14" rx="1" fill="#e2e8f0" fill-opacity="0.85"/>
<rect x="82.0" y="124.0" width="14" height="14" rx="1" fill="#e2e8f0" fill-opacity="0.85"/>
<rect x="110.0" y="124.0" width="14" height="14" rx="1" fill="#e2e8f0" fill-opacity="0.85"/>
<rect x="110.0" y="138.0" width="14" height="14" rx="1" fill="#e2e8f0" fill-opacity="0.85"/>
<rect x="124.0" y="124.0" width="14" height="14" rx="1" fill="#e2e8f0" fill-opacity="0.85"/>
<rect x="138.0" y="124.0" width="14" height="14" rx="1" fill="#e2e8f0" fill-opacity="0.85"/>
<rect x="152.0" y="124.0" width="14" height="14" rx="1" fill="#e2e8f0" fill-opacity="0.85"/>
<rect x="180.0" y="124.0" width="14" height="14" rx="1" fill="#e2e8f0" fill-opacity="0.85"/>
<rect x="194.0" y="124.0" width="14" height="14" rx="1" fill="#e2e8f0" fill-opacity="0.85"/>
<rect x="208.0" y="124.0" width="14" height="14" rx="1" fill="#e2e8f0" fill-opacity="0.85"/>
<rect x="222.0" y="124.0" width="14" height="14" rx="1" fill="#e2e8f0" fill-opacity="0.85"/>
<rect x="250.0" y="124.0" width="14" height="14" rx="1" fill="#e2e8f0" fill-opacity="0.85"/>
<rect x="292.0" y="124.0" width="14" height="14" rx="1" fill="#e2e8f0" fill-opacity="0.85"/>

<rect x="348.0" y="68.0" width="14" height="14" rx="1" fill="url(#purpleG)" fill-opacity="1"/>
<rect x="348.0" y="82.0" width="14" height="14" rx="1" fill="url(#purpleG)" fill-opacity="1"/>
<rect x="362.0" y="68.0" width="14" height="14" rx="1" fill="url(#purpleG)" fill-opacity="1"/>
<rect x="376.0" y="68.0" width="14" height="14" rx="1" fill="url(#purpleG)" fill-opacity="1"/>
<rect x="390.0" y="68.0" width="14" height="14" rx="1" fill="url(#purpleG)" fill-opacity="1"/>
<rect x="390.0" y="82.0" width="14" height="14" rx="1" fill="url(#purpleG)" fill-opacity="1"/>
<rect x="418.0" y="68.0" width="14" height="14" rx="1" fill="url(#purpleG)" fill-opacity="1"/>
<rect x="418.0" y="82.0" width="14" height="14" rx="1" fill="url(#purpleG)" fill-opacity="1"/>
<rect x="460.0" y="68.0" width="14" height="14" rx="1" fill="url(#purpleG)" fill-opacity="1"/>
<rect x="460.0" y="82.0" width="14" height="14" rx="1" fill="url(#purpleG)" fill-opacity="1"/>
<rect x="488.0" y="68.0" width="14" height="14" rx="1" fill="url(#purpleG)" fill-opacity="1"/>
<rect x="488.0" y="82.0" width="14" height="14" rx="1" fill="url(#purpleG)" fill-opacity="1"/>
<rect x="502.0" y="68.0" width="14" height="14" rx="1" fill="url(#purpleG)" fill-opacity="1"/>
<rect x="516.0" y="68.0" width="14" height="14" rx="1" fill="url(#purpleG)" fill-opacity="1"/>
<rect x="530.0" y="68.0" width="14" height="14" rx="1" fill="url(#purpleG)" fill-opacity="1"/>
<rect x="530.0" y="82.0" width="14" height="14" rx="1" fill="url(#purpleG)" fill-opacity="1"/>
<rect x="558.0" y="68.0" width="14" height="14" rx="1" fill="url(#purpleG)" fill-opacity="1"/>
<rect x="558.0" y="82.0" width="14" height="14" rx="1" fill="url(#purpleG)" fill-opacity="1"/>
<rect x="572.0" y="68.0" width="14" height="14" rx="1" fill="url(#purpleG)" fill-opacity="1"/>
<rect x="586.0" y="68.0" width="14" height="14" rx="1" fill="url(#purpleG)" fill-opacity="1"/>
<rect x="600.0" y="68.0" width="14" height="14" rx="1" fill="url(#purpleG)" fill-opacity="1"/>
<rect x="600.0" y="82.0" width="14" height="14" rx="1" fill="url(#purpleG)" fill-opacity="1"/>
<rect x="628.0" y="68.0" width="14" height="14" rx="1" fill="url(#purpleG)" fill-opacity="1"/>
<rect x="628.0" y="82.0" width="14" height="14" rx="1" fill="url(#purpleG)" fill-opacity="1"/>
<rect x="698.0" y="68.0" width="14" height="14" rx="1" fill="url(#purpleG)" fill-opacity="1"/>
<rect x="698.0" y="82.0" width="14" height="14" rx="1" fill="url(#purpleG)" fill-opacity="1"/>
<rect x="712.0" y="68.0" width="14" height="14" rx="1" fill="url(#purpleG)" fill-opacity="1"/>
<rect x="726.0" y="68.0" width="14" height="14" rx="1" fill="url(#purpleG)" fill-opacity="1"/>
<rect x="740.0" y="68.0" width="14" height="14" rx="1" fill="url(#purpleG)" fill-opacity="1"/>
<rect x="740.0" y="82.0" width="14" height="14" rx="1" fill="url(#purpleG)" fill-opacity="1"/>
<rect x="348.0" y="96.0" width="14" height="14" rx="1" fill="url(#purpleG)" fill-opacity="1"/>
<rect x="348.0" y="110.0" width="14" height="14" rx="1" fill="url(#purpleG)" fill-opacity="1"/>
<rect x="390.0" y="96.0" width="14" height="14" rx="1" fill="url(#purpleG)" fill-opacity="1"/>
<rect x="390.0" y="110.0" width="14" height="14" rx="1" fill="url(#purpleG)" fill-opacity="1"/>
<rect x="418.0" y="96.0" width="14" height="14" rx="1" fill="url(#purpleG)" fill-opacity="1"/>
<rect x="418.0" y="110.0" width="14" height="14" rx="1" fill="url(#purpleG)" fill-opacity="1"/>
<rect x="460.0" y="96.0" width="14" height="14" rx="1" fill="url(#purpleG)" fill-opacity="1"/>
<rect x="460.0" y="110.0" width="14" height="14" rx="1" fill="url(#purpleG)" fill-opacity="1"/>
<rect x="488.0" y="96.0" width="14" height="14" rx="1" fill="url(#purpleG)" fill-opacity="1"/>
<rect x="488.0" y="110.0" width="14" height="14" rx="1" fill="url(#purpleG)" fill-opacity="1"/>
<rect x="502.0" y="96.0" width="14" height="14" rx="1" fill="url(#purpleG)" fill-opacity="1"/>
<rect x="516.0" y="96.0" width="14" height="14" rx="1" fill="url(#purpleG)" fill-opacity="1"/>
<rect x="530.0" y="110.0" width="14" height="14" rx="1" fill="url(#purpleG)" fill-opacity="1"/>
<rect x="558.0" y="96.0" width="14" height="14" rx="1" fill="url(#purpleG)" fill-opacity="1"/>
<rect x="558.0" y="110.0" width="14" height="14" rx="1" fill="url(#purpleG)" fill-opacity="1"/>
<rect x="600.0" y="96.0" width="14" height="14" rx="1" fill="url(#purpleG)" fill-opacity="1"/>
<rect x="600.0" y="110.0" width="14" height="14" rx="1" fill="url(#purpleG)" fill-opacity="1"/>
<rect x="628.0" y="96.0" width="14" height="14" rx="1" fill="url(#purpleG)" fill-opacity="1"/>
<rect x="628.0" y="110.0" width="14" height="14" rx="1" fill="url(#purpleG)" fill-opacity="1"/>
<rect x="698.0" y="96.0" width="14" height="14" rx="1" fill="url(#purpleG)" fill-opacity="1"/>
<rect x="698.0" y="110.0" width="14" height="14" rx="1" fill="url(#purpleG)" fill-opacity="1"/>
<rect x="712.0" y="96.0" width="14" height="14" rx="1" fill="url(#purpleG)" fill-opacity="1"/>
<rect x="726.0" y="96.0" width="14" height="14" rx="1" fill="url(#purpleG)" fill-opacity="1"/>
<rect x="740.0" y="96.0" width="14" height="14" rx="1" fill="url(#purpleG)" fill-opacity="1"/>
<rect x="348.0" y="124.0" width="14" height="14" rx="1" fill="url(#purpleG)" fill-opacity="1"/>
<rect x="348.0" y="138.0" width="14" height="14" rx="1" fill="url(#purpleG)" fill-opacity="1"/>
<rect x="362.0" y="124.0" width="14" height="14" rx="1" fill="url(#purpleG)" fill-opacity="1"/>
<rect x="376.0" y="124.0" width="14" height="14" rx="1" fill="url(#purpleG)" fill-opacity="1"/>
<rect x="390.0" y="124.0" width="14" height="14" rx="1" fill="url(#purpleG)" fill-opacity="1"/>
<rect x="418.0" y="124.0" width="14" height="14" rx="1" fill="url(#purpleG)" fill-opacity="1"/>
<rect x="432.0" y="124.0" width="14" height="14" rx="1" fill="url(#purpleG)" fill-opacity="1"/>
<rect x="446.0" y="124.0" width="14" height="14" rx="1" fill="url(#purpleG)" fill-opacity="1"/>
<rect x="460.0" y="124.0" width="14" height="14" rx="1" fill="url(#purpleG)" fill-opacity="1"/>
<rect x="488.0" y="124.0" width="14" height="14" rx="1" fill="url(#purpleG)" fill-opacity="1"/>
<rect x="530.0" y="124.0" width="14" height="14" rx="1" fill="url(#purpleG)" fill-opacity="1"/>
<rect x="558.0" y="124.0" width="14" height="14" rx="1" fill="url(#purpleG)" fill-opacity="1"/>
<rect x="558.0" y="138.0" width="14" height="14" rx="1" fill="url(#purpleG)" fill-opacity="1"/>
<rect x="572.0" y="124.0" width="14" height="14" rx="1" fill="url(#purpleG)" fill-opacity="1"/>
<rect x="586.0" y="124.0" width="14" height="14" rx="1" fill="url(#purpleG)" fill-opacity="1"/>
<rect x="600.0" y="124.0" width="14" height="14" rx="1" fill="url(#purpleG)" fill-opacity="1"/>
<rect x="628.0" y="124.0" width="14" height="14" rx="1" fill="url(#purpleG)" fill-opacity="1"/>
<rect x="642.0" y="124.0" width="14" height="14" rx="1" fill="url(#purpleG)" fill-opacity="1"/>
<rect x="656.0" y="124.0" width="14" height="14" rx="1" fill="url(#purpleG)" fill-opacity="1"/>
<rect x="670.0" y="124.0" width="14" height="14" rx="1" fill="url(#purpleG)" fill-opacity="1"/>
<rect x="698.0" y="124.0" width="14" height="14" rx="1" fill="url(#purpleG)" fill-opacity="1"/>
<rect x="712.0" y="124.0" width="14" height="14" rx="1" fill="url(#purpleG)" fill-opacity="1"/>
<rect x="726.0" y="124.0" width="14" height="14" rx="1" fill="url(#purpleG)" fill-opacity="1"/>
<rect x="740.0" y="124.0" width="14" height="14" rx="1" fill="url(#purpleG)" fill-opacity="1"/>

</svg>