<svg xmlns="http://www.w3.org/2000/svg" viewBox="0 0 780 262" width="780" height="262">
<defs>
  <linearGradient id="lG" x1="0" y1="0" x2="1" y2="0"><stop offset="0%" stop-color="#7c3aed"/><stop offset="100%" stop-color="#8b5cf6"/></linearGradient>
  <linearGradient id="rG" x1="0" y1="0" x2="1" y2="0"><stop offset="0%" stop-color="#a855f7"/><stop offset="45%" stop-color="#c084fc"/><stop offset="100%" stop-color="#f3e8ff"/></linearGradient>
  <filter id="glow"><feGaussianBlur stdDeviation="2"/><feMerge><feMergeNode in="SourceGraphic"/><feMergeNode in="blur"/></feMerge></filter>
</defs>
<rect width="780" height="262" fill="#f5f3ff" rx="12"/>
<rect x="0" y="0" width="780" height="30" fill="undefined" rx="12"/>
<rect x="0" y="15" width="780" height="15" fill="undefined"/>
<circle cx="30" cy="15" r="5.5" fill="#ef4444" opacity="0.75"/>
<circle cx="52" cy="15" r="5.5" fill="#f59e0b" opacity="0.75"/>
<circle cx="74" cy="15" r="5.5" fill="#22c55e" opacity="0.75"/>
<g filter="url(#glow)">
<rect x="40.0" y="108.0" width="14" height="14" rx="1" fill="#5b21b6" fill-opacity="0.65"/>
<rect x="40.0" y="122.0" width="14" height="14" rx="1" fill="#5b21b6" fill-opacity="0.65"/>
<rect x="54.0" y="108.0" width="14" height="14" rx="1" fill="#5b21b6" fill-opacity="0.65"/>
<rect x="68.0" y="108.0" width="14" height="14" rx="1" fill="#5b21b6" fill-opacity="0.65"/>
<rect x="82.0" y="108.0" width="14" height="14" rx="1" fill="#5b21b6" fill-opacity="0.65"/>
<rect x="82.0" y="122.0" width="14" height="14" rx="1" fill="#5b21b6" fill-opacity="0.65"/>
<rect x="110.0" y="108.0" width="14" height="14" rx="1" fill="#5b21b6" fill-opacity="0.65"/>
<rect x="110.0" y="122.0" width="14" height="14" rx="1" fill="#5b21b6" fill-opacity="0.65"/>
<rect x="124.0" y="108.0" width="14" height="14" rx="1" fill="#5b21b6" fill-opacity="0.65"/>
<rect x="138.0" y="108.0" width="14" height="14" rx="1" fill="#5b21b6" fill-opacity="0.65"/>
<rect x="152.0" y="108.0" width="14" height="14" rx="1" fill="#5b21b6" fill-opacity="0.65"/>
<rect x="152.0" y="122.0" width="14" height="14" rx="1" fill="#5b21b6" fill-opacity="0.65"/>
<rect x="180.0" y="108.0" width="14" height="14" rx="1" fill="#5b21b6" fill-opacity="0.65"/>
<rect x="180.0" y="122.0" width="14" height="14" rx="1" fill="#5b21b6" fill-opacity="0.65"/>
<rect x="194.0" y="108.0" width="14" height="14" rx="1" fill="#5b21b6" fill-opacity="0.65"/>
<rect x="208.0" y="108.0" width="14" height="14" rx="1" fill="#5b21b6" fill-opacity="0.65"/>
<rect x="222.0" y="108.0" width="14" height="14" rx="1" fill="#5b21b6" fill-opacity="0.65"/>
<rect x="222.0" y="122.0" width="14" height="14" rx="1" fill="#5b21b6" fill-opacity="0.65"/>
<rect x="250.0" y="108.0" width="14" height="14" rx="1" fill="#5b21b6" fill-opacity="0.65"/>
<rect x="250.0" y="122.0" width="14" height="14" rx="1" fill="#5b21b6" fill-opacity="0.65"/>
<rect x="264.0" y="108.0" width="14" height="14" rx="1" fill="#5b21b6" fill-opacity="0.65"/>
<rect x="278.0" y="108.0" width="14" height="14" rx="1" fill="#5b21b6" fill-opacity="0.65"/>
<rect x="292.0" y="122.0" width="14" height="14" rx="1" fill="#5b21b6" fill-opacity="0.65"/>
<rect x="40.0" y="136.0" width="14" height="14" rx="1" fill="#5b21b6" fill-opacity="0.65"/>
<rect x="40.0" y="150.0" width="14" height="14" rx="1" fill="#5b21b6" fill-opacity="0.65"/>
<rect x="82.0" y="136.0" width="14" height="14" rx="1" fill="#5b21b6" fill-opacity="0.65"/>
<rect x="82.0" y="150.0" width="14" height="14" rx="1" fill="#5b21b6" fill-opacity="0.65"/>
<rect x="110.0" y="136.0" width="14" height="14" rx="1" fill="#5b21b6" fill-opacity="0.65"/>
<rect x="110.0" y="150.0" width="14" height="14" rx="1" fill="#5b21b6" fill-opacity="0.65"/>
<rect x="152.0" y="136.0" width="14" height="14" rx="1" fill="#5b21b6" fill-opacity="0.65"/>
<rect x="152.0" y="150.0" width="14" height="14" rx="1" fill="#5b21b6" fill-opacity="0.65"/>
<rect x="180.0" y="136.0" width="14" height="14" rx="1" fill="#5b21b6" fill-opacity="0.65"/>
<rect x="180.0" y="150.0" width="14" height="14" rx="1" fill="#5b21b6" fill-opacity="0.65"/>
<rect x="194.0" y="136.0" width="14" height="14" rx="1" fill="#5b21b6" fill-opacity="0.65"/>
<rect x="208.0" y="136.0" width="14" height="14" rx="1" fill="#5b21b6" fill-opacity="0.65"/>
<rect x="222.0" y="136.0" width="14" height="14" rx="1" fill="#5b21b6" fill-opacity="0.65"/>
<rect x="250.0" y="136.0" width="14" height="14" rx="1" fill="#5b21b6" fill-opacity="0.65"/>
<rect x="250.0" y="150.0" width="14" height="14" rx="1" fill="#5b21b6" fill-opacity="0.65"/>
<rect x="292.0" y="136.0" width="14" height="14" rx="1" fill="#5b21b6" fill-opacity="0.65"/>
<rect x="292.0" y="150.0" width="14" height="14" rx="1" fill="#5b21b6" fill-opacity="0.65"/>
<rect x="40.0" y="164.0" width="14" height="14" rx="1" fill="#5b21b6" fill-opacity="0.65"/>
<rect x="54.0" y="164.0" width="14" height="14" rx="1" fill="#5b21b6" fill-opacity="0.65"/>
<rect x="68.0" y="164.0" width="14" height="14" rx="1" fill="#5b21b6" fill-opacity="0.65"/>
<rect x="82.0" y="164.0" width="14" height="14" rx="1" fill="#5b21b6" fill-opacity="0.65"/>
<rect x="110.0" y="164.0" width="14" height="14" rx="1" fill="#5b21b6" fill-opacity="0.65"/>
<rect x="110.0" y="178.0" width="14" height="14" rx="1" fill="#5b21b6" fill-opacity="0.65"/>
<rect x="124.0" y="164.0" width="14" height="14" rx="1" fill="#5b21b6" fill-opacity="0.65"/>
<rect x="138.0" y="164.0" width="14" height="14" rx="1" fill="#5b21b6" fill-opacity="0.65"/>
<rect x="152.0" y="164.0" width="14" height="14" rx="1" fill="#5b21b6" fill-opacity="0.65"/>
<rect x="180.0" y="164.0" width="14" height="14" rx="1" fill="#5b21b6" fill-opacity="0.65"/>
<rect x="194.0" y="164.0" width="14" height="14" rx="1" fill="#5b21b6" fill-opacity="0.65"/>
<rect x="208.0" y="164.0" width="14" height="14" rx="1" fill="#5b21b6" fill-opacity="0.65"/>
<rect x="222.0" y="164.0" width="14" height="14" rx="1" fill="#5b21b6" fill-opacity="0.65"/>
<rect x="250.0" y="164.0" width="14" height="14" rx="1" fill="#5b21b6" fill-opacity="0.65"/>
<rect x="292.0" y="164.0" width="14" height="14" rx="1" fill="#5b21b6" fill-opacity="0.65"/>

<rect x="334.0" y="108.0" width="14" height="14" rx="1" fill="#6d28d9" fill-opacity="1"/>
<rect x="334.0" y="122.0" width="14" height="14" rx="1" fill="#6d28d9" fill-opacity="1"/>
<rect x="348.0" y="108.0" width="14" height="14" rx="1" fill="#6d28d9" fill-opacity="1"/>
<rect x="362.0" y="108.0" width="14" height="14" rx="1" fill="#6d28d9" fill-opacity="1"/>
<rect x="376.0" y="108.0" width="14" height="14" rx="1" fill="#6d28d9" fill-opacity="1"/>
<rect x="376.0" y="122.0" width="14" height="14" rx="1" fill="#6d28d9" fill-opacity="1"/>
<rect x="404.0" y="108.0" width="14" height="14" rx="1" fill="#6d28d9" fill-opacity="1"/>
<rect x="404.0" y="122.0" width="14" height="14" rx="1" fill="#6d28d9" fill-opacity="1"/>
<rect x="446.0" y="108.0" width="14" height="14" rx="1" fill="#6d28d9" fill-opacity="1"/>
<rect x="446.0" y="122.0" width="14" height="14" rx="1" fill="#6d28d9" fill-opacity="1"/>
<rect x="474.0" y="108.0" width="14" height="14" rx="1" fill="#6d28d9" fill-opacity="1"/>
<rect x="474.0" y="122.0" width="14" height="14" rx="1" fill="#6d28d9" fill-opacity="1"/>
<rect x="488.0" y="108.0" width="14" height="14" rx="1" fill="#6d28d9" fill-opacity="1"/>
<rect x="502.0" y="108.0" width="14" height="14" rx="1" fill="#6d28d9" fill-opacity="1"/>
<rect x="516.0" y="108.0" width="14" height="14" rx="1" fill="#6d28d9" fill-opacity="1"/>
<rect x="516.0" y="122.0" width="14" height="14" rx="1" fill="#6d28d9" fill-opacity="1"/>
<rect x="544.0" y="108.0" width="14" height="14" rx="1" fill="#6d28d9" fill-opacity="1"/>
<rect x="544.0" y="122.0" width="14" height="14" rx="1" fill="#6d28d9" fill-opacity="1"/>
<rect x="558.0" y="108.0" width="14" height="14" rx="1" fill="#6d28d9" fill-opacity="1"/>
<rect x="572.0" y="108.0" width="14" height="14" rx="1" fill="#6d28d9" fill-opacity="1"/>
<rect x="586.0" y="108.0" width="14" height="14" rx="1" fill="#6d28d9" fill-opacity="1"/>
<rect x="586.0" y="122.0" width="14" height="14" rx="1" fill="#6d28d9" fill-opacity="1"/>
<rect x="614.0" y="108.0" width="14" height="14" rx="1" fill="#6d28d9" fill-opacity="1"/>
<rect x="614.0" y="122.0" width="14" height="14" rx="1" fill="#6d28d9" fill-opacity="1"/>
<rect x="684.0" y="108.0" width="14" height="14" rx="1" fill="#6d28d9" fill-opacity="1"/>
<rect x="684.0" y="122.0" width="14" height="14" rx="1" fill="#6d28d9" fill-opacity="1"/>
<rect x="698.0" y="108.0" width="14" height="14" rx="1" fill="#6d28d9" fill-opacity="1"/>
<rect x="712.0" y="108.0" width="14" height="14" rx="1" fill="#6d28d9" fill-opacity="1"/>
<rect x="726.0" y="108.0" width="14" height="14" rx="1" fill="#6d28d9" fill-opacity="1"/>
<rect x="726.0" y="122.0" width="14" height="14" rx="1" fill="#6d28d9" fill-opacity="1"/>
<rect x="334.0" y="136.0" width="14" height="14" rx="1" fill="#6d28d9" fill-opacity="1"/>
<rect x="334.0" y="150.0" width="14" height="14" rx="1" fill="#6d28d9" fill-opacity="1"/>
<rect x="376.0" y="136.0" width="14" height="14" rx="1" fill="#6d28d9" fill-opacity="1"/>
<rect x="376.0" y="150.0" width="14" height="14" rx="1" fill="#6d28d9" fill-opacity="1"/>
<rect x="404.0" y="136.0" width="14" height="14" rx="1" fill="#6d28d9" fill-opacity="1"/>
<rect x="404.0" y="150.0" width="14" height="14" rx="1" fill="#6d28d9" fill-opacity="1"/>
<rect x="446.0" y="136.0" width="14" height="14" rx="1" fill="#6d28d9" fill-opacity="1"/>
<rect x="446.0" y="150.0" width="14" height="14" rx="1" fill="#6d28d9" fill-opacity="1"/>
<rect x="474.0" y="136.0" width="14" height="14" rx="1" fill="#6d28d9" fill-opacity="1"/>
<rect x="474.0" y="150.0" width="14" height="14" rx="1" fill="#6d28d9" fill-opacity="1"/>
<rect x="488.0" y="136.0" width="14" height="14" rx="1" fill="#6d28d9" fill-opacity="1"/>
<rect x="502.0" y="136.0" width="14" height="14" rx="1" fill="#6d28d9" fill-opacity="1"/>
<rect x="516.0" y="150.0" width="14" height="14" rx="1" fill="#6d28d9" fill-opacity="1"/>
<rect x="544.0" y="136.0" width="14" height="14" rx="1" fill="#6d28d9" fill-opacity="1"/>
<rect x="544.0" y="150.0" width="14" height="14" rx="1" fill="#6d28d9" fill-opacity="1"/>
<rect x="586.0" y="136.0" width="14" height="14" rx="1" fill="#6d28d9" fill-opacity="1"/>
<rect x="586.0" y="150.0" width="14" height="14" rx="1" fill="#6d28d9" fill-opacity="1"/>
<rect x="614.0" y="136.0" width="14" height="14" rx="1" fill="#6d28d9" fill-opacity="1"/>
<rect x="614.0" y="150.0" width="14" height="14" rx="1" fill="#6d28d9" fill-opacity="1"/>
<rect x="684.0" y="136.0" width="14" height="14" rx="1" fill="#6d28d9" fill-opacity="1"/>
<rect x="684.0" y="150.0" width="14" height="14" rx="1" fill="#6d28d9" fill-opacity="1"/>
<rect x="698.0" y="136.0" width="14" height="14" rx="1" fill="#6d28d9" fill-opacity="1"/>
<rect x="712.0" y="136.0" width="14" height="14" rx="1" fill="#6d28d9" fill-opacity="1"/>
<rect x="726.0" y="136.0" width="14" height="14" rx="1" fill="#6d28d9" fill-opacity="1"/>
<rect x="334.0" y="164.0" width="14" height="14" rx="1" fill="#6d28d9" fill-opacity="1"/>
<rect x="334.0" y="178.0" width="14" height="14" rx="1" fill="#6d28d9" fill-opacity="1"/>
<rect x="348.0" y="164.0" width="14" height="14" rx="1" fill="#6d28d9" fill-opacity="1"/>
<rect x="362.0" y="164.0" width="14" height="14" rx="1" fill="#6d28d9" fill-opacity="1"/>
<rect x="376.0" y="164.0" width="14" height="14" rx="1" fill="#6d28d9" fill-opacity="1"/>
<rect x="404.0" y="164.0" width="14" height="14" rx="1" fill="#6d28d9" fill-opacity="1"/>
<rect x="418.0" y="164.0" width="14" height="14" rx="1" fill="#6d28d9" fill-opacity="1"/>
<rect x="432.0" y="164.0" width="14" height="14" rx="1" fill="#6d28d9" fill-opacity="1"/>
<rect x="446.0" y="164.0" width="14" height="14" rx="1" fill="#6d28d9" fill-opacity="1"/>
<rect x="474.0" y="164.0" width="14" height="14" rx="1" fill="#6d28d9" fill-opacity="1"/>
<rect x="516.0" y="164.0" width="14" height="14" rx="1" fill="#6d28d9" fill-opacity="1"/>
<rect x="544.0" y="164.0" width="14" height="14" rx="1" fill="#6d28d9" fill-opacity="1"/>
<rect x="544.0" y="178.0" width="14" height="14" rx="1" fill="#6d28d9" fill-opacity="1"/>
<rect x="558.0" y="164.0" width="14" height="14" rx="1" fill="#6d28d9" fill-opacity="1"/>
<rect x="572.0" y="164.0" width="14" height="14" rx="1" fill="#6d28d9" fill-opacity="1"/>
<rect x="586.0" y="164.0" width="14" height="14" rx="1" fill="#6d28d9" fill-opacity="1"/>
<rect x="614.0" y="164.0" width="14" height="14" rx="1" fill="#6d28d9" fill-opacity="1"/>
<rect x="628.0" y="164.0" width="14" height="14" rx="1" fill="#6d28d9" fill-opacity="1"/>
<rect x="642.0" y="164.0" width="14" height="14" rx="1" fill="#6d28d9" fill-opacity="1"/>
<rect x="656.0" y="164.0" width="14" height="14" rx="1" fill="#6d28d9" fill-opacity="1"/>
<rect x="684.0" y="164.0" width="14" height="14" rx="1" fill="#6d28d9" fill-opacity="1"/>
<rect x="698.0" y="164.0" width="14" height="14" rx="1" fill="#6d28d9" fill-opacity="1"/>
<rect x="712.0" y="164.0" width="14" height="14" rx="1" fill="#6d28d9" fill-opacity="1"/>
<rect x="726.0" y="164.0" width="14" height="14" rx="1" fill="#6d28d9" fill-opacity="1"/>

</g>
<text x="390" y="222" text-anchor="middle" font-family="system-ui,-apple-system,sans-serif" font-size="13" fill="undefined" letter-spacing="6">MULTI-AGENT COLLABORATION PLATFORM</text>
<text x="179.4" y="250" text-anchor="middle" font-family="monospace" font-size="11" fill="#7c3aed">▣ A · Alice</text>
<text x="390" y="250" text-anchor="middle" font-family="monospace" font-size="11" fill="#4c1d95">○ B · Bob</text>
<text x="600.6" y="250" text-anchor="middle" font-family="monospace" font-size="11" fill="#4c1d95">○ C · Carol</text>
</svg>